<svg width="25.000000" height="25.000000" viewBox="0 0 25 25" fill="none" xmlns="http://www.w3.org/2000/svg" xmlns:xlink="http://www.w3.org/1999/xlink">
	<desc>
			Created with Pixso.
	</desc>
	<defs/>
	<g opacity="0.000000">
		<path id="Vector" d="M0 0L25 0L25 25L0 25L0 0Z" fill="#149211" fill-opacity="1.000000" fill-rule="evenodd"/>
	</g>
	<path id="Vector" d="M11.5729 23.9583C11.4521 23.9582 11.3323 23.937 11.2188 23.8958C10.9997 23.8156 10.814 23.6642 10.6912 23.4659C10.5685 23.2676 10.5158 23.0339 10.5417 22.8021L11.3438 15.4167L5.20834 15.4167C5.0191 15.4169 4.83336 15.3657 4.67106 15.2684C4.50877 15.171 4.37605 15.0314 4.28716 14.8643C4.19827 14.6972 4.15658 14.5091 4.16655 14.3201C4.17652 14.1312 4.23778 13.9484 4.34376 13.7917L12.5625 1.5C12.6925 1.30762 12.883 1.16425 13.1038 1.09253C13.3246 1.02081 13.563 1.0249 13.7812 1.10419C13.991 1.18207 14.1701 1.32538 14.2921 1.513C14.414 1.70062 14.4723 1.92249 14.4583 2.14581L13.6562 9.58331L19.7917 9.58331C19.9809 9.58307 20.1666 9.63434 20.3289 9.73163C20.4912 9.82898 20.624 9.96863 20.7128 10.1357C20.8017 10.3028 20.8434 10.4909 20.8335 10.6799C20.8235 10.8688 20.7622 11.0516 20.6562 11.2083L12.4375 23.5C12.3419 23.6414 12.2131 23.7571 12.0624 23.837C11.9116 23.9169 11.7435 23.9586 11.5729 23.9583ZM7.15626 13.3333L12.5 13.3333C12.6454 13.3337 12.789 13.3644 12.9218 13.4236C13.0546 13.4828 13.1734 13.5692 13.2708 13.6771C13.3691 13.7864 13.4432 13.9154 13.4881 14.0554C13.5329 14.1955 13.5477 14.3434 13.5312 14.4896L13.0625 18.8125L17.8438 11.6667L12.5 11.6667C12.353 11.6675 12.2075 11.6373 12.073 11.5779C11.9385 11.5186 11.8182 11.4315 11.7198 11.3223C11.6214 11.213 11.5472 11.0842 11.5022 10.9443C11.4571 10.8044 11.4422 10.6565 11.4583 10.5104L11.9271 6.1875L7.15626 13.3333Z" fill="#149211" fill-opacity="1.000000" fill-rule="nonzero"/>
</svg>
