<svg width="27.777771" height="25.000000" viewBox="0 0 27.7778 25" fill="none" xmlns="http://www.w3.org/2000/svg" xmlns:xlink="http://www.w3.org/1999/xlink">
	<desc>
			Created with Pixso.
	</desc>
	<defs/>
	<path id="Vector" d="M2.77777 2.77777L2.77777 22.2222L25 22.2222L25 2.77777L2.77777 2.77777ZM1.38892 0L26.3889 0C26.7572 0 27.1105 0.146301 27.371 0.406799C27.6314 0.667236 27.7778 1.02051 27.7778 1.38892L27.7778 23.6111C27.7778 23.9795 27.6314 24.3328 27.371 24.5932C27.1105 24.8537 26.7572 25 26.3889 25L1.38892 25C1.02051 25 0.667236 24.8537 0.406799 24.5932C0.146301 24.3328 0 23.9795 0 23.6111L0 1.38892C0 1.02051 0.146301 0.667236 0.406799 0.406799C0.667236 0.146301 1.02051 0 1.38892 0ZM17.7681 9.43469L15.2778 6.94446L22.2222 6.94446L22.2222 13.8889L19.7319 11.3986L14.3653 16.7653L11.4194 13.8195L7.4903 17.7472L5.52637 15.7833L11.4194 9.89026L14.3653 12.8375L17.7681 9.43469Z" fill="#F25822" fill-opacity="1.000000" fill-rule="nonzero"/>
</svg>
